<svg xmlns="http://www.w3.org/2000/svg" viewBox="0 0 580.64 453.69"><title>surfboard</title><path d="M6.59,349c9-26,15.45-46.23,60-80,94.63-71.7,414-272,446-269,18.17,1.71,65,67,68,125,1.45,28-30,45-118,103,0,0-131,98-296,183,0,0-103.55,52.53-133,41C8.81,442.33-10.73,399.07,6.59,349Z" style="fill:#00cccc"/><path d="M51.6,394a5,5,0,0,1-2.75-9.17l76-50a5,5,0,1,1,5.49,8.35l-76,50A4.93,4.93,0,0,1,51.6,394Z" style="fill:#fff"/><path d="M241.6,274a5,5,0,0,1-2.75-9.18l105-69a5,5,0,0,1,5.49,8.36l-105,69A5,5,0,0,1,241.6,274Z" style="fill:#fff"/><path d="M440.6,146a5,5,0,0,1-2.79-9.15l76-51a5,5,0,0,1,5.57,8.31l-76,51A5,5,0,0,1,440.6,146Z" style="fill:#fff"/></svg>
